# xmcd
#
# Track frame offsets: 
#        150
#        8880
#        22122
#        30640
#        45195
#        59672
#        71547
#        83660
#        97330
#        108267
#        123290
#        134327
#        145007
#        157945
#        171412
#
# Disc length: 2488 seconds
#
# Revision: 4
# Processed by: cddbd v1.5.2PL0 Copyright (c) Steve Scherf et al.
# Submitted via: ExactAudioCopyFreeDBPlugin 1.0
#
DISCID=c509b60f
DTITLE=Ralph Stanley - Saturday Night and Sunday Morning ~D1 Saturday Ni
DTITLE=ght
DYEAR=1992
DGENRE=Bluegrass
TTITLE0=Mountain Folks
TTITLE1=Down Where The River Bends (feat. Ralph and Dwight Yoakam)
TTITLE2=Old Man's Tears (feat. Ralph, Judy Marshall and Emmylou Harris)
TTITLE3=All I Ever Loved Was You (feat. Ralph and Ricky Skaggs)
TTITLE4=Midnight Storm (feat. Ralph and Vince Gill)
TTITLE5=All The Good Times Are Past And Gone (feat. Ralph and Jimmy Mart
TTITLE5=in)
TTITLE6=I Never Will Marry (feat. Ralph, Emmylou Harris and Judy Marshal
TTITLE6=l)
TTITLE7=Banks Of The Ohio (feat. Ralph and Charlie Waller)
TTITLE8=I Love No One But You (feat. Ralph and Charlie Sizemore)
TTITLE9=Sea Of Regret (feat. Ralph and Ricky Skaggs)
TTITLE10=The Water Lily (feat. Ralph, Tom T. Hall and Judy Marshall)
TTITLE11=I'll Never Grow Tired Of You (feat. Ralph and Patty Loveless)
TTITLE12=All The Love I Had Is Gone (feat. Ralph and Larry Sparks)
TTITLE13=Wonderful World Outside (feat. Ralph and George Jones)
TTITLE14=Letter From My Darling (feat. Ralph and Bill Monroe)
EXTD=YEAR: 1992
EXTT0=
EXTT1=
EXTT2=
EXTT3=
EXTT4=
EXTT5=
EXTT6=
EXTT7=
EXTT8=
EXTT9=
EXTT10=
EXTT11=
EXTT12=
EXTT13=
EXTT14=
PLAYORDER=
